<mxfile host="app.diagrams.net" modified="2021-04-21T18:06:41.547Z" agent="5.0 (Windows NT 6.1; Win64; x64) AppleWebKit/537.36 (KHTML, like Gecko) Chrome/89.0.4389.128 Safari/537.36" etag="LtVz1S6o67f74ex0WJtf" version="14.6.5" type="github">
  <diagram id="TqziplNKKsP-mUbx3WrT" name="Page-1">
    <mxGraphModel dx="868" dy="482" grid="1" gridSize="10" guides="1" tooltips="1" connect="1" arrows="1" fold="1" page="1" pageScale="1" pageWidth="850" pageHeight="1100" math="0" shadow="0">
      <root>
        <mxCell id="0" />
        <mxCell id="1" parent="0" />
        <mxCell id="6TrTPnFiFObZ4LrnNkZ0-1" value="&lt;span&gt;User guesses a letter&lt;/span&gt;" style="rhombus;whiteSpace=wrap;html=1;" vertex="1" parent="1">
          <mxGeometry x="345" y="120" width="110" height="110" as="geometry" />
        </mxCell>
        <mxCell id="6TrTPnFiFObZ4LrnNkZ0-4" value="" style="endArrow=classic;html=1;exitX=1;exitY=0.5;exitDx=0;exitDy=0;" edge="1" parent="1" source="6TrTPnFiFObZ4LrnNkZ0-1">
          <mxGeometry width="50" height="50" relative="1" as="geometry">
            <mxPoint x="400" y="280" as="sourcePoint" />
            <mxPoint x="520" y="175" as="targetPoint" />
            <Array as="points">
              <mxPoint x="480" y="175" />
            </Array>
          </mxGeometry>
        </mxCell>
        <mxCell id="6TrTPnFiFObZ4LrnNkZ0-5" value="" style="endArrow=classic;html=1;entryX=0.5;entryY=0;entryDx=0;entryDy=0;exitX=0.5;exitY=1;exitDx=0;exitDy=0;" edge="1" parent="1" target="6TrTPnFiFObZ4LrnNkZ0-1">
          <mxGeometry width="50" height="50" relative="1" as="geometry">
            <mxPoint x="400" y="80" as="sourcePoint" />
            <mxPoint x="430" y="80" as="targetPoint" />
          </mxGeometry>
        </mxCell>
        <mxCell id="6TrTPnFiFObZ4LrnNkZ0-6" value="True" style="text;html=1;strokeColor=none;fillColor=none;align=center;verticalAlign=middle;whiteSpace=wrap;rounded=0;" vertex="1" parent="1">
          <mxGeometry x="460" y="150" width="40" height="20" as="geometry" />
        </mxCell>
        <mxCell id="6TrTPnFiFObZ4LrnNkZ0-7" value="Letter shows in all the positions it is present in the word" style="rounded=1;whiteSpace=wrap;html=1;" vertex="1" parent="1">
          <mxGeometry x="520" y="160" width="200" height="40" as="geometry" />
        </mxCell>
        <mxCell id="6TrTPnFiFObZ4LrnNkZ0-8" value="" style="endArrow=classic;html=1;exitX=0.5;exitY=0;exitDx=0;exitDy=0;" edge="1" parent="1" source="6TrTPnFiFObZ4LrnNkZ0-7">
          <mxGeometry width="50" height="50" relative="1" as="geometry">
            <mxPoint x="400" y="260" as="sourcePoint" />
            <mxPoint x="400" y="100" as="targetPoint" />
            <Array as="points">
              <mxPoint x="620" y="100" />
            </Array>
          </mxGeometry>
        </mxCell>
        <mxCell id="6TrTPnFiFObZ4LrnNkZ0-9" value="" style="endArrow=classic;html=1;exitX=0.5;exitY=1;exitDx=0;exitDy=0;entryX=0.5;entryY=0;entryDx=0;entryDy=0;" edge="1" parent="1" source="6TrTPnFiFObZ4LrnNkZ0-1" target="6TrTPnFiFObZ4LrnNkZ0-11">
          <mxGeometry width="50" height="50" relative="1" as="geometry">
            <mxPoint x="400" y="260" as="sourcePoint" />
            <mxPoint x="400" y="280" as="targetPoint" />
          </mxGeometry>
        </mxCell>
        <mxCell id="6TrTPnFiFObZ4LrnNkZ0-10" value="False" style="text;html=1;strokeColor=none;fillColor=none;align=center;verticalAlign=middle;whiteSpace=wrap;rounded=0;" vertex="1" parent="1">
          <mxGeometry x="405" y="240" width="40" height="20" as="geometry" />
        </mxCell>
        <mxCell id="6TrTPnFiFObZ4LrnNkZ0-11" value="Is the Hangman Complete?" style="rhombus;whiteSpace=wrap;html=1;" vertex="1" parent="1">
          <mxGeometry x="340" y="265" width="120" height="100" as="geometry" />
        </mxCell>
        <mxCell id="6TrTPnFiFObZ4LrnNkZ0-12" value="" style="endArrow=classic;html=1;exitX=0.5;exitY=1;exitDx=0;exitDy=0;entryX=0.5;entryY=0;entryDx=0;entryDy=0;" edge="1" parent="1" source="6TrTPnFiFObZ4LrnNkZ0-11" target="6TrTPnFiFObZ4LrnNkZ0-13">
          <mxGeometry width="50" height="50" relative="1" as="geometry">
            <mxPoint x="640" y="215" as="sourcePoint" />
            <mxPoint x="400" y="400" as="targetPoint" />
          </mxGeometry>
        </mxCell>
        <mxCell id="6TrTPnFiFObZ4LrnNkZ0-13" value="Stop" style="rounded=1;whiteSpace=wrap;html=1;" vertex="1" parent="1">
          <mxGeometry x="360" y="400" width="80" height="30" as="geometry" />
        </mxCell>
        <mxCell id="6TrTPnFiFObZ4LrnNkZ0-14" value="True" style="text;html=1;strokeColor=none;fillColor=none;align=center;verticalAlign=middle;whiteSpace=wrap;rounded=0;" vertex="1" parent="1">
          <mxGeometry x="400" y="365" width="40" height="20" as="geometry" />
        </mxCell>
        <mxCell id="6TrTPnFiFObZ4LrnNkZ0-15" value="" style="endArrow=classic;html=1;" edge="1" parent="1">
          <mxGeometry width="50" height="50" relative="1" as="geometry">
            <mxPoint x="340" y="314.5" as="sourcePoint" />
            <mxPoint x="280" y="314.5" as="targetPoint" />
          </mxGeometry>
        </mxCell>
        <mxCell id="6TrTPnFiFObZ4LrnNkZ0-16" value="False" style="text;html=1;strokeColor=none;fillColor=none;align=center;verticalAlign=middle;whiteSpace=wrap;rounded=0;" vertex="1" parent="1">
          <mxGeometry x="300" y="320" width="40" height="20" as="geometry" />
        </mxCell>
        <mxCell id="6TrTPnFiFObZ4LrnNkZ0-17" value="Add a part of hangman" style="rounded=1;whiteSpace=wrap;html=1;" vertex="1" parent="1">
          <mxGeometry x="150" y="295" width="130" height="40" as="geometry" />
        </mxCell>
        <mxCell id="6TrTPnFiFObZ4LrnNkZ0-18" value="" style="endArrow=classic;html=1;exitX=0.5;exitY=0;exitDx=0;exitDy=0;" edge="1" parent="1" source="6TrTPnFiFObZ4LrnNkZ0-17">
          <mxGeometry width="50" height="50" relative="1" as="geometry">
            <mxPoint x="190" y="310" as="sourcePoint" />
            <mxPoint x="400" y="100" as="targetPoint" />
            <Array as="points">
              <mxPoint x="215" y="100" />
            </Array>
          </mxGeometry>
        </mxCell>
        <mxCell id="6TrTPnFiFObZ4LrnNkZ0-20" value="&lt;span&gt;Starts by showing dashes for a random word&amp;nbsp;&lt;/span&gt;" style="rounded=1;whiteSpace=wrap;html=1;" vertex="1" parent="1">
          <mxGeometry x="280" y="40" width="230" height="40" as="geometry" />
        </mxCell>
      </root>
    </mxGraphModel>
  </diagram>
</mxfile>
